<svg width="36" height="32" viewBox="0 0 36 32" fill="none" xmlns="http://www.w3.org/2000/svg">
<path fill-rule="evenodd" clip-rule="evenodd" d="M0 31C0 30.4477 0.439575 30 0.981818 30H35.0182C35.5604 30 36 30.4477 36 31C36 31.5523 35.5604 32 35.0182 32H0.981818C0.439575 32 0 31.5523 0 31Z" fill="#332D2B"/>
<path d="M6 31V1.29167C6 0.949095 6.14048 0.620555 6.39052 0.378321C6.64057 0.136086 6.97971 0 7.33333 0H28.6667C29.0203 0 29.3594 0.136086 29.6095 0.378321C29.8595 0.620555 30 0.949095 30 1.29167V31" fill="#332D2B"/>
<path d="M22.5 17C23.3284 17 24 16.3284 24 15.5C24 14.6716 23.3284 14 22.5 14C21.6716 14 21 14.6716 21 15.5C21 16.3284 21.6716 17 22.5 17Z" fill="white"/>
</svg>
