<svg width="33" height="28" viewBox="0 0 33 28" fill="none" xmlns="http://www.w3.org/2000/svg">
<path d="M29.3333 13.5216C29.3333 16.0374 25.927 16.1229 23.627 16.0319C22.7277 15.9964 22.0332 16.69 22.0688 17.5883C22.1599 19.8856 22.0743 23.2878 19.5556 23.2878H7.19353C6.76133 23.2878 6.34683 23.4593 6.04121 23.7646L2.78195 27.02C1.75534 28.0454 0 27.3192 0 25.869V3.75541C0 2.89202 0.343385 2.06399 0.954615 1.45349C1.56584 0.842979 2.39485 0.5 3.25926 0.5H26.0741C26.9385 0.5 27.7675 0.842979 28.3787 1.45349C28.9899 2.06399 29.3333 2.89202 29.3333 3.75541V13.5216Z" fill="white"/>
<path fill-rule="evenodd" clip-rule="evenodd" d="M28.5185 17.184C29.1935 17.184 29.7407 17.7305 29.7407 18.4047V20.4394H31.7778C32.4528 20.4394 33 20.9859 33 21.6601C33 22.3344 32.4528 22.8809 31.7778 22.8809H29.7407V24.9155C29.7407 25.5898 29.1935 26.1363 28.5185 26.1363C27.8435 26.1363 27.2963 25.5898 27.2963 24.9155V22.8809H25.2593C24.5842 22.8809 24.037 22.3344 24.037 21.6601C24.037 20.9859 24.5842 20.4394 25.2593 20.4394H27.2963V18.4047C27.2963 17.7305 27.8435 17.184 28.5185 17.184Z" fill="white"/>
</svg>
