<svg width="21" height="20" viewBox="0 0 21 20" fill="none" xmlns="http://www.w3.org/2000/svg">
<path d="M7.93499 13.4998C7.84571 13.1537 7.66533 12.8379 7.4126 12.5851C7.15988 12.3324 6.84406 12.152 6.49799 12.0628L0.362987 10.4808C0.258318 10.4511 0.166196 10.388 0.100599 10.3012C0.0350027 10.2144 -0.000488281 10.1086 -0.000488281 9.99976C-0.000488281 9.89096 0.0350027 9.78512 0.100599 9.69832C0.166196 9.61151 0.258318 9.54847 0.362987 9.51876L6.49799 7.93576C6.84394 7.84657 7.15968 7.66633 7.41239 7.4138C7.6651 7.16126 7.84555 6.84565 7.93499 6.49976L9.51699 0.364761C9.54639 0.259679 9.60937 0.167103 9.69631 0.101155C9.78324 0.0352083 9.88937 -0.000488281 9.99849 -0.000488281C10.1076 -0.000488281 10.2137 0.0352083 10.3007 0.101155C10.3876 0.167103 10.4506 0.259679 10.48 0.364761L12.061 6.49976C12.1503 6.84583 12.3306 7.16166 12.5834 7.41438C12.8361 7.6671 13.1519 7.84748 13.498 7.93676L19.633 9.51776C19.7385 9.54686 19.8315 9.60977 19.8978 9.69684C19.9641 9.78391 20 9.89032 20 9.99976C20 10.1092 19.9641 10.2156 19.8978 10.3027C19.8315 10.3898 19.7385 10.4527 19.633 10.4818L13.498 12.0628C13.1519 12.152 12.8361 12.3324 12.5834 12.5851C12.3306 12.8379 12.1503 13.1537 12.061 13.4998L10.479 19.6348C10.4496 19.7398 10.3866 19.8324 10.2997 19.8984C10.2127 19.9643 10.1066 20 9.99749 20C9.88837 20 9.78224 19.9643 9.69531 19.8984C9.60837 19.8324 9.54539 19.7398 9.51599 19.6348L7.93499 13.4998Z" fill="#17100E"/>
<path d="M1.99805 14.9998V16.9998V14.9998Z" fill="#17100E"/>
<path d="M2.99805 15.9998H0.998047H2.99805Z" fill="#17100E"/>
<path d="M1.99805 14.9998V16.9998M2.99805 15.9998H0.998047" stroke="#17100E" stroke-width="2" stroke-linecap="round" stroke-linejoin="round"/>
<path d="M17.998 0.999756V4.99976V0.999756Z" fill="#17100E"/>
<path d="M19.998 2.99976H15.998H19.998Z" fill="#17100E"/>
<path d="M17.998 0.999756V4.99976M19.998 2.99976H15.998" stroke="#17100E" stroke-width="2" stroke-linecap="round" stroke-linejoin="round"/>
</svg>
